<svg xmlns="http://www.w3.org/2000/svg" xmlns:xlink="http://www.w3.org/1999/xlink" version="1.1" x="0px" y="0px" viewBox="0 0 100 125" enable-background="new 0 0 100 100" xml:space="preserve"><g><g><path d="M84.5,5.5h-69c-5.514,0-10,4.486-10,10v69c0,5.514,4.486,10,10,10h69c5.514,0,10-4.486,10-10v-69    C94.5,9.986,90.014,5.5,84.5,5.5z M90.5,84.5c0,3.309-2.691,6-6,6h-69c-3.309,0-6-2.691-6-6v-69c0-3.309,2.691-6,6-6h69    c3.309,0,6,2.691,6,6V84.5z"/><path d="M74.662,25.409H25.34c-2.764,0-5.002,2.239-5.002,5.001c0,2.763,2.238,5.002,5.002,5.002h49.322c2.762,0,5-2.239,5-5.002    C79.662,27.648,77.424,25.409,74.662,25.409z"/><path d="M74.662,44.998H25.34c-2.764,0-5.002,2.24-5.002,5.002s2.238,5.002,5.002,5.002h49.322c2.762,0,5-2.24,5-5.002    S77.424,44.998,74.662,44.998z"/><path d="M74.662,64.588H25.34c-2.764,0-5.002,2.239-5.002,5.002c0,2.762,2.238,5.001,5.002,5.001h49.322c2.762,0,5-2.239,5-5.001    C79.662,66.827,77.424,64.588,74.662,64.588z"/></g></g><text x="0" y="115" fill="#000000" font-size="5px" font-weight="bold" font-family="'Helvetica Neue', Helvetica, Arial-Unicode, Arial, Sans-serif">Created by Robert Won</text><text x="0" y="120" fill="#000000" font-size="5px" font-weight="bold" font-family="'Helvetica Neue', Helvetica, Arial-Unicode, Arial, Sans-serif">from the Noun Project</text></svg>